<svg fill="none" viewBox="0 0 24 24" xmlns="http://www.w3.org/2000/svg"><path clip-rule="evenodd" d="M2 12.5h12v-1H2v1Z" fill="#cea474" fill-rule="evenodd" class="fill-000000"></path><path clip-rule="evenodd" d="m5.146 8.146-3.5 3.5a.5.5 0 0 0 0 .708l3.5 3.5.708-.707L2.707 12l3.147-3.146-.708-.708ZM14.595 5c-2.677 0-5.003 1.546-6.149 3.813l-.892-.451C8.86 5.776 11.52 4 14.595 4c4.372 0 7.905 3.588 7.905 8s-3.533 8-7.905 8c-3.074 0-5.734-1.776-7.041-4.362l.892-.451C9.592 17.454 11.918 19 14.596 19c3.807 0 6.904-3.128 6.904-7s-3.097-7-6.905-7Z" fill="#cea474" fill-rule="evenodd" class="fill-000000"></path></svg>